HIERARCHY
ROOT hips_JNT
{
    OFFSET 0 0 0
    CHANNELS 6 Xposition Yposition Zposition Zrotation Xrotation Yrotation
    JOINT spine_JNT
    {
        OFFSET 0 9.31981 2.50024
        CHANNELS 3 Zrotation Xrotation Yrotation
        JOINT spine1_JNT
        {
            OFFSET 0 10.8731 0.000486523
            CHANNELS 3 Zrotation Xrotation Yrotation
            JOINT spine2_JNT
            {
                OFFSET 0 12.4264 -2.59964
                CHANNELS 3 Zrotation Xrotation Yrotation
                JOINT neck_JNT
                {
                    OFFSET 0 13.9797 -4.76936
                    CHANNELS 3 Zrotation Xrotation Yrotation
                    JOINT head_JNT
                    {
                        OFFSET 0 9.99981 1.50011
                        CHANNELS 3 Zrotation Xrotation Yrotation
                        JOINT l_eye_JNT
                        {
                            OFFSET 3.30566 5.87308 8.90861
                            CHANNELS 3 Zrotation Xrotation Yrotation
                            End Site
                            {
                                OFFSET 0 0 0
                            }
                        }
                        JOINT r_eye_JNT
                        {
                            OFFSET -3.3047 5.87308 8.90845
                            CHANNELS 3 Zrotation Xrotation Yrotation
                            End Site
                            {
                                OFFSET 0 0 0
                            }
                        }
                    }
                }
                JOINT l_shoulder_JNT
                {
                    OFFSET 4.39914 12.861 -4.79389
                    CHANNELS 3 Zrotation Xrotation Yrotation
                    JOINT l_arm_JNT
                    {
                        OFFSET 8.75735 -2.31198 -0.0490516
                        CHANNELS 3 Zrotation Xrotation Yrotation
                        JOINT l_forearm_JNT
                        {
                            OFFSET 26.8802 -4.76837e-05 0.9999
                            CHANNELS 3 Zrotation Xrotation Yrotation
                            JOINT l_hand_JNT1
                            {
                                OFFSET 22.5 -4.76837e-05 -0.999891
                                CHANNELS 3 Zrotation Xrotation Yrotation
                                JOINT l_handThumb1_JNT
                                {
                                    OFFSET 4.1647 -0.779998 2.13
                                    CHANNELS 3 Zrotation Xrotation Yrotation
                                    JOINT l_handThumb2_JNT
                                    {
                                        OFFSET 3.55114 -2.11837 2.24006
                                        CHANNELS 3 Zrotation Xrotation Yrotation
                                        JOINT l_handThumb3_JNT
                                        {
                                            OFFSET 2.15911 -1.11631 0.963467
                                            CHANNELS 3 Zrotation Xrotation Yrotation
                                            End Site
                                            {
                                                OFFSET 0 0 0
                                            }
                                        }
                                    }
                                }
                                JOINT l_handIndex1_JNT
                                {
                                    OFFSET 11.0496 -0.0410199 2.19757
                                    CHANNELS 3 Zrotation Xrotation Yrotation
                                    JOINT l_handIndex2_JNT
                                    {
                                        OFFSET 2.75183 -0.102866 -0.139054
                                        CHANNELS 3 Zrotation Xrotation Yrotation
                                        JOINT l_handIndex3_JNT
                                        {
                                            OFFSET 2.35301 -0.0733972 -0.0904871
                                            CHANNELS 3 Zrotation Xrotation Yrotation
                                            End Site
                                            {
                                                OFFSET 0 0 0
                                            }
                                        }
                                    }
                                }
                                JOINT l_handMiddle1_JNT
                                {
                                    OFFSET 10.6018 0.139201 0.0595726
                                    CHANNELS 3 Zrotation Xrotation Yrotation
                                    JOINT l_handMiddle2_JNT
                                    {
                                        OFFSET 3.90903 -0.288403 -0.119066
                                        CHANNELS 3 Zrotation Xrotation Yrotation
                                        JOINT l_handMiddle3_JNT
                                        {
                                            OFFSET 2.3284 -0.0191092 -0.0594396
                                            CHANNELS 3 Zrotation Xrotation Yrotation
                                            End Site
                                            {
                                                OFFSET 0 0 0
                                            }
                                        }
                                    }
                                }
                                JOINT l_handRing1_JNT
                                {
                                    OFFSET 10.0028 0.132239 -1.80983
                                    CHANNELS 3 Zrotation Xrotation Yrotation
                                    JOINT l_handRing2_JNT
                                    {
                                        OFFSET 3.28153 -0.224054 -0.0339366
                                        CHANNELS 3 Zrotation Xrotation Yrotation
                                        JOINT l_handRing3_JNT
                                        {
                                            OFFSET 2.245 -0.0702143 -0.00838935
                                            CHANNELS 3 Zrotation Xrotation Yrotation
                                            End Site
                                            {
                                                OFFSET 0 0 0
                                            }
                                        }
                                    }
                                }
                                JOINT l_handPinky1_JNT
                                {
                                    OFFSET 9.02547 -0.0777721 -3.58415
                                    CHANNELS 3 Zrotation Xrotation Yrotation
                                    JOINT l_handPinky2_JNT
                                    {
                                        OFFSET 2.53217 -0.0730753 -0.0170402
                                        CHANNELS 3 Zrotation Xrotation Yrotation
                                        JOINT l_handPinky3_JNT
                                        {
                                            OFFSET 1.95121 0.0251174 0.0170089
                                            CHANNELS 3 Zrotation Xrotation Yrotation
                                            End Site
                                            {
                                                OFFSET 0 0 0
                                            }
                                        }
                                    }
                                }
                            }
                        }
                    }
                }
                JOINT r_shoulder_JNT
                {
                    OFFSET -4.39914 12.861 -4.79388
                    CHANNELS 3 Zrotation Xrotation Yrotation
                    JOINT r_arm_JNT
                    {
                        OFFSET -8.75733 -2.31203 -0.0489999
                        CHANNELS 3 Zrotation Xrotation Yrotation
                        JOINT r_forearm_JNT
                        {
                            OFFSET -26.8797 -0.000178814 1.0003
                            CHANNELS 3 Zrotation Xrotation Yrotation
                            JOINT r_hand_JNT
                            {
                                OFFSET -22.5004 -0.00013113 -1.00026
                                CHANNELS 3 Zrotation Xrotation Yrotation
                                JOINT r_handThumb1_JNT
                                {
                                    OFFSET -4.16225 -0.779998 2.12985
                                    CHANNELS 3 Zrotation Xrotation Yrotation
                                    JOINT r_handThumb2_JNT
                                    {
                                        OFFSET -3.551 -2.118 2.24
                                        CHANNELS 3 Zrotation Xrotation Yrotation
                                        JOINT r_handThumb3_JNT
                                        {
                                            OFFSET -2.159 -1.116 0.963
                                            CHANNELS 3 Zrotation Xrotation Yrotation
                                            End Site
                                            {
                                                OFFSET 0 0 0
                                            }
                                        }
                                    }
                                }
                                JOINT r_handIndex1_JNT
                                {
                                    OFFSET -11.0492 -0.0617146 2.198
                                    CHANNELS 3 Zrotation Xrotation Yrotation
                                    JOINT r_handIndex2_JNT
                                    {
                                        OFFSET -2.752 -2.38419e-05 4.00469e-05
                                        CHANNELS 3 Zrotation Xrotation Yrotation
                                        JOINT r_handIndex3_JNT
                                        {
                                            OFFSET -2.353 -2.38419e-05 0.000122935
                                            CHANNELS 3 Zrotation Xrotation Yrotation
                                            End Site
                                            {
                                                OFFSET 0 0 0
                                            }
                                        }
                                    }
                                }
                                JOINT r_handMiddle1_JNT
                                {
                                    OFFSET -10.6012 -0.000107288 -9.42498e-05
                                    CHANNELS 3 Zrotation Xrotation Yrotation
                                    JOINT r_handMiddle2_JNT
                                    {
                                        OFFSET -3.909 -2.38419e-05 5.92321e-05
                                        CHANNELS 3 Zrotation Xrotation Yrotation
                                        JOINT r_handMiddle3_JNT
                                        {
                                            OFFSET -2.328 -2.38419e-05 -6.81728e-05
                                            CHANNELS 3 Zrotation Xrotation Yrotation
                                            End Site
                                            {
                                                OFFSET 0 0 0
                                            }
                                        }
                                    }
                                }
                                JOINT r_handRing1_JNT
                                {
                                    OFFSET -10.0022 -0.0904322 -1.81
                                    CHANNELS 3 Zrotation Xrotation Yrotation
                                    JOINT r_handRing2_JNT
                                    {
                                        OFFSET -3.282 -2.38419e-05 -8.04663e-05
                                        CHANNELS 3 Zrotation Xrotation Yrotation
                                        JOINT r_handRing3_JNT
                                        {
                                            OFFSET -2.245 -1.19209e-05 -0.000112504
                                            CHANNELS 3 Zrotation Xrotation Yrotation
                                            End Site
                                            {
                                                OFFSET 0 0 0
                                            }
                                        }
                                    }
                                }
                                JOINT r_handPinky1_JNT
                                {
                                    OFFSET -9.02522 -0.0277758 -3.584
                                    CHANNELS 3 Zrotation Xrotation Yrotation
                                    JOINT r_handPinky2_JNT
                                    {
                                        OFFSET -2.532 -2.38419e-05 -5.36442e-05
                                        CHANNELS 3 Zrotation Xrotation Yrotation
                                        JOINT r_handPinky3_JNT
                                        {
                                            OFFSET -1.951 -1.19209e-05 2.98023e-06
                                            CHANNELS 3 Zrotation Xrotation Yrotation
                                            End Site
                                            {
                                                OFFSET 0 0 0
                                            }
                                        }
                                    }
                                }
                            }
                        }
                    }
                }
            }
        }
    }
    JOINT l_upleg_JNT
    {
        OFFSET 10.0614 -5.18976 -0.599789
        CHANNELS 3 Zrotation Xrotation Yrotation
        JOINT l_leg_JNT
        {
            OFFSET -0.348572 -45.2997 -0.999784
            CHANNELS 3 Zrotation Xrotation Yrotation
            JOINT l_foot_JNT
            {
                OFFSET 0.349145 -42.6112 -1.63431
                CHANNELS 3 Zrotation Xrotation Yrotation
                JOINT l_toebase_JNT
                {
                    OFFSET 0.0702709 -8.12666 12.9004
                    CHANNELS 3 Zrotation Xrotation Yrotation
                    End Site
                    {
                        OFFSET 0 0 0
                    }
                }
            }
        }
    }
    JOINT r_upleg_JNT
    {
        OFFSET -10.061 -5.19003 -0.600353
        CHANNELS 3 Zrotation Xrotation Yrotation
        JOINT r_leg_JNT
        {
            OFFSET 0.34855 -45.3004 -0.999655
            CHANNELS 3 Zrotation Xrotation Yrotation
            JOINT r_foot_JNT
            {
                OFFSET -0.349179 -42.6095 -1.63367
                CHANNELS 3 Zrotation Xrotation Yrotation
                JOINT r_toebase_JNT
                {
                    OFFSET -0.0702724 -8.12664 12.8997
                    CHANNELS 3 Zrotation Xrotation Yrotation
                    End Site
                    {
                        OFFSET 0 0 0
                    }
                }
            }
        }
    }
}
MOTION
Frames: 5
Frame Time: 0.04
-0.138259 97.6939 0.416752 0.907985 0.55594 84.1081 -1.33402e-08 -2.42657e-20 0 -1.89736 2.30346 -8.61723 -1.00052e-07 -2.98195e-15 0 -9.37783 8.58919 7.10628 9.7124 -13.8341 1.27532 1.06722e-07 -2.13443e-07 0 1.06722e-07 -2.13443e-07 0 -1.00052e-07 -2.98195e-15 0 -79.2604 3.65861 -2.71767 -4.94598 0.55337 -12.7597 1.70755e-06 -1.70755e-06 0 4.10661 20.7048 -22.2077 -0 0 0 -17.7829 -0.273818 1.75028 -28.1555 8.05725 2.02286 -36.3503 10.0827 3.31836 -24.0909 6.98144 1.49302 -32.8514 6.19193 1.82815 -42.3386 7.67168 2.97507 -28.1293 5.38663 1.35043 -37.3985 -3.47562 -1.17635 -48.1191 -4.25801 -1.9016 -32.0455 -3.03722 -0.872222 -41.1494 -7.49732 -2.81779 -53.085 -9.08499 -4.5449 -35.2176 -6.57924 -2.09098 -1.00052e-07 -2.98195e-15 0 84.1631 -2.44214 -11.3776 10.5853 2.4641 26.1402 -1.70755e-06 5.08889e-14 0 -4.10661 20.7048 22.2077 -0 0 0 17.9 0.277407 1.76098 28.3434 8.10592 -2.04862 36.5946 10.1399 -3.36032 24.2512 7.02465 -1.51126 33.0694 6.22809 -1.85028 42.6207 7.71254 -3.01298 28.3156 5.41918 -1.36714 37.6454 -3.49513 1.19155 48.4371 -4.27906 1.92614 32.2569 -3.05507 0.884695 41.4234 -7.53779 2.85367 53.4401 -9.12642 4.60139 35.4516 -6.6169 2.11665 -3.83975 1.69174 1.3614 -3.59823 38.3453 1.1968 -0.112361 0.150345 0 0.979744 -28.3612 2.25279 0.6427 -6.66844 0.984361 -3.79522 44.9923 1.57118 1.70755e-06 -3.41509e-06 0 0.397707 -35.5226 1.10428 
-1.577 98.4623 0.269311 0.784959 -0.988247 82.4587 3.18055e-15 1.06722e-07 0 -1.74604 2.29864 -8.5172 2.13443e-07 -1.06722e-07 0 -9.31475 6.47434 6.98355 9.06023 -10.2922 0.907406 7.15625e-15 2.40124e-07 0 7.15625e-15 2.40124e-07 0 -1.06722e-07 2.13443e-07 0 -79.0177 4.26174 -3.22481 -6.19328 0.594868 -10.9625 -0 0 0 4.10661 20.7048 -22.2077 -0 0 0 -17.8111 -0.274682 1.75207 -28.2008 8.069 2.02981 -36.4092 10.0965 3.32802 -24.1296 6.99187 1.49616 -32.904 6.20067 1.83328 -42.4066 7.68156 2.98348 -28.1742 5.39449 1.35391 -37.4581 -3.48033 -1.17967 -48.1958 -4.2631 -1.90776 -32.0965 -3.04153 -0.87491 -41.2155 -7.5071 -2.82583 -53.1707 -9.09502 -4.559 -35.2741 -6.58833 -2.09621 -1.06722e-07 2.13443e-07 0 84.5703 -2.11496 -9.96323 10.2067 2.24666 24.7671 1.02453e-05 3.4151e-06 0 -4.10661 20.7048 22.2077 -0 0 0 17.8905 0.277117 1.75964 28.3282 8.102 -2.04786 36.5749 10.1353 -3.35753 24.2383 7.02117 -1.50918 33.0518 6.22518 -1.84816 42.5979 7.70926 -3.00934 28.3006 5.41656 -1.36542 37.6255 -3.49356 1.1909 48.4115 -4.27736 1.92329 32.2399 -3.05363 0.884695 41.4013 -7.53454 2.85093 53.4115 -9.12309 4.59697 35.4327 -6.61387 2.1148 -2.76679 3.62732 7.65031 0.83751 33.8201 -0.364768 -0.295555 0.253791 0.068528 0.306712 -31.1244 0.799169 2.5151 -8.75328 1.85112 -2.71713 43.5686 1.08569 -1.70755e-06 -1.70755e-06 0 0.211625 -32.4209 0.654913 
-3.89822 99.4928 -0.215476 0.722288 -1.75554 81.2673 3.97569e-15 -1.33402e-07 0.0559529 -1.77039 2.3002 -8.18647 1.27222e-14 4.26887e-07 0 -8.74986 4.55071 6.49394 7.84655 -6.29152 0.509756 1.06722e-07 3.18055e-15 0 1.06722e-07 3.18055e-15 0 -5.33608e-07 -6.4033e-07 0 -79.0153 4.37566 -3.24586 -6.58068 0.615091 -10.6691 5.12264e-06 -6.83019e-06 0 4.10661 20.7048 -22.2077 -0 0 0 -17.8211 -0.274989 1.75341 -28.2169 8.07317 2.03213 -36.4302 10.1014 3.33155 -24.1433 6.99557 1.49773 -32.9226 6.20376 1.83456 -42.4308 7.68506 2.98741 -28.1902 5.39728 1.35622 -37.4792 -3.482 -1.18166 -48.223 -4.2649 -1.90899 -32.1146 -3.04306 -0.876697 -41.2389 -7.51057 -2.82915 -53.201 -9.09857 -4.56364 -35.2941 -6.59156 -2.09957 -5.33608e-07 -6.4033e-07 0 84.8652 -1.73778 -9.24635 10.1159 2.18713 24.3414 1.53679e-05 0 0 -4.10661 20.7048 22.2077 -0 0 0 17.8837 0.276908 1.7592 28.3173 8.09918 -2.04748 36.5608 10.1319 -3.35473 24.229 7.01866 -1.50815 33.0392 6.22309 -1.84689 42.5816 7.70689 -3.007 28.2898 5.41467 -1.36485 37.6112 -3.49243 1.18826 48.393 -4.27615 1.92288 32.2276 -3.0526 0.880261 41.3854 -7.5322 2.84873 53.3909 -9.1207 4.59305 35.4191 -6.61169 2.11332 -1.72158 4.30159 6.20043 0.0156674 28.3236 -0.220287 -0.421956 0.390249 0.193827 0.240039 -33.4804 0.819478 3.4167 -10.7301 2.7194 -2.8285 43.7317 1.13572 8.53774e-06 -8.53773e-07 0 0.234916 -22.8595 0.64891 
-6.49855 100.517 -0.897315 0.894859 -0.966165 81.1047 7.75219e-15 1.30067e-07 0 -1.90456 2.2929 -7.79404 2.13443e-07 -6.36111e-15 0 -8.24325 3.96588 6.0983 6.99232 -3.84743 0.30901 2.13443e-07 -1.27222e-14 0 2.13443e-07 -1.27222e-14 0 -5.33608e-08 4.26887e-07 0 -79.2403 3.90077 -2.77073 -5.72606 0.616204 -12.274 3.41509e-06 0 0 4.10661 20.7048 -22.2077 -0 0 0 -17.806 -0.274525 1.75207 -28.1926 8.06686 2.02866 -36.3985 10.094 3.3259 -24.1226 6.98998 1.49564 -32.8944 6.19908 1.832 -42.3942 7.67976 2.98191 -28.166 5.39306 1.35448 -37.4472 -3.47947 -1.18033 -48.1818 -4.26217 -1.90653 -32.0872 -3.04075 -0.87491 -41.2035 -7.50532 -2.82472 -53.1551 -9.0932 -4.55608 -35.2638 -6.58668 -2.09621 -5.33608e-08 4.26887e-07 0 84.8767 -1.29281 -9.58562 10.523 2.37614 25.3828 -1.19528e-05 -1.70755e-05 0.0559529 -4.10661 20.7048 22.2077 -0 0 0 17.8924 0.277174 1.76009 28.3312 8.10276 -2.04862 36.5788 10.1362 -3.35823 24.2408 7.02185 -1.51022 33.0552 6.22575 -1.84858 42.6024 7.7099 -3.01012 28.3035 5.41707 -1.36714 37.6294 -3.49386 1.19024 48.4165 -4.27769 1.92329 32.2432 -3.05392 0.884695 41.4056 -7.53517 2.85175 53.4171 -9.12374 4.59765 35.4364 -6.61446 2.11591 -1.0896 2.95566 5.54539 -0.301478 24.3793 -0.268341 -0.529554 0.525123 0.321425 0.0748409 -32.4104 0.349426 2.41166 -12.7315 3.60423 -3.83802 45.6307 1.61491 5.97642e-06 1.70755e-06 0 0.435379 -11.3683 0.932085 
-8.3606 101.24 -1.51893 1.23988 1.00248 81.7874 -1.06722e-07 2.13443e-07 0 -1.96756 2.26561 -7.5722 6.67011e-08 -1.60083e-07 0 -8.20156 4.83843 6.09496 6.94449 -3.51996 0.29342 -2.48481e-17 4.26887e-07 0 -2.48481e-17 4.26887e-07 0 6.67011e-08 -1.60083e-07 0 -79.4225 3.23121 -2.15476 -4.21428 0.561391 -15.1686 -0 0 0 4.10661 20.7048 -22.2077 -0 0 0 -17.7545 -0.272952 1.74759 -28.11 8.04543 2.01821 -36.2911 10.0689 3.30773 -24.0521 6.97096 1.48829 -32.7985 6.18315 1.82171 -42.2702 7.66174 2.96506 -28.0841 5.37873 1.34521 -37.3386 -3.47088 -1.17168 -48.042 -4.25289 -1.89541 -31.9942 -3.03289 -0.868625 -41.0829 -7.48748 -2.80888 -52.9988 -9.07489 -4.53144 -35.1609 -6.57008 -2.0831 6.67011e-08 -1.60083e-07 0 84.7755 -0.831288 -10.5222 11.0398 2.67783 27.1923 -1.70755e-06 -2.54444e-14 0 -4.10661 20.7048 22.2077 -0 0 0 17.9052 0.277568 1.76187 28.3518 8.10808 -2.05168 36.6055 10.1424 -3.36335 24.2583 7.02657 -1.51281 33.0791 6.2297 -1.85112 42.6332 7.71436 -3.01376 28.3239 5.42063 -1.36943 37.6564 -3.49599 1.19221 48.4513 -4.27999 1.92735 32.2663 -3.05587 0.882924 41.4356 -7.53959 2.85504 53.456 -9.12826 4.60378 35.462 -6.61858 2.11813 -1.2699 0.919885 6.26563 -0.463016 22.778 -0.364768 -0.659574 0.640199 0.34264 -0.0112584 -26.8454 0 0.15337 -15.4011 4.3791 -4.55368 47.9597 2.02711 -2.56132e-06 -3.41509e-06 0 0.642226 -2.59046 1.10993 
